<svg id="Component_9_1" data-name="Component 9 – 1" xmlns="http://www.w3.org/2000/svg" width="164.711" height="176.904" viewBox="0 0 164.711 176.904">
  <path id="Path_1" data-name="Path 1" d="M160.788,78.264c-3.863.13-10.4.988-15.553,5.64-4.716,4.26-6.118,9.758-6.813,12.712-7.417,31.5-6.242,78.049,0,104.067.774,3.227,2.279,8.857,7.159,13.127a22.427,22.427,0,0,0,11.46,5.071h8.564s28.674-3.021,34.638-22.653a23.641,23.641,0,0,0,0-8.717,25.891,25.891,0,0,0-2.064-6.175,32.7,32.7,0,0,0-3.212-5.505c-.079-.112-2.551-4.357-7.493-12.846-1.879-3.226-6.794-11.669-12.081-21.563-3.19-5.969-6.548-13.28-13.266-27.9a45.669,45.669,0,0,1-4.206-14.384,42.727,42.727,0,0,1-.244-6.222A43.555,43.555,0,0,1,160.788,78.264Z" transform="translate(-133.29 -60.265)" fill="#2c2c2c"/>
  <path id="Path_2" data-name="Path 2" d="M219.252,292.058c2,3.306,5.948,8.59,12.524,10.809,6.022,2.031,11.5.565,14.42-.273,31.107-8.934,71.134-32.719,90.777-50.886,2.436-2.253,6.611-6.319,7.95-12.663a22.429,22.429,0,0,0-1.181-12.477l-4.188-7.47s-16.655-23.535-36.7-19.138a23.645,23.645,0,0,0-7.6,4.263,25.9,25.9,0,0,0-4.376,4.82,32.693,32.693,0,0,0-3.232,5.494c-.059.124-2.553,4.355-7.541,12.818-1.9,3.216-6.857,11.632-12.9,21.082-3.647,5.7-8.382,12.206-17.851,25.214a45.678,45.678,0,0,1-10.49,10.7,42.807,42.807,0,0,1-5.308,3.255A43.581,43.581,0,0,1,219.252,292.058Z" transform="translate(-180.636 -126.99)" fill="#2c2c2c"/>
  <path id="Path_3" data-name="Path 3" d="M332.157,120.01c1.813-3.413,4.329-9.51,2.864-16.294-1.342-6.212-5.41-10.167-7.624-12.242C303.783,69.339,262.848,47.156,237.181,39.6c-3.184-.938-8.814-2.439-14.948-.338a22.424,22.424,0,0,0-10.109,7.407l-4.269,7.424s-11.675,26.363,2.371,41.32a23.643,23.643,0,0,0,7.556,4.345,25.912,25.912,0,0,0,6.382,1.288,32.7,32.7,0,0,0,6.374-.04c.137-.013,5.048-.039,14.872-.093,3.734-.02,13.5-.073,24.715.275,6.765.21,14.777.942,30.8,2.408a45.669,45.669,0,0,1,14.566,3.523,42.771,42.771,0,0,1,5.516,2.89A43.563,43.563,0,0,1,332.157,120.01Z" transform="translate(-171.852 -38.197)" fill="#2c2c2c"/>
  <circle id="Ellipse_1" data-name="Ellipse 1" cx="16.75" cy="16.75" r="16.75" transform="translate(60.3 72.422)" fill="#fff"/>
</svg>
