<svg xmlns="http://www.w3.org/2000/svg" xmlns:xlink="http://www.w3.org/1999/xlink" width="182.525" height="163.068" viewBox="0 0 182.525 163.068">
  <defs>
    <linearGradient id="linear-gradient" y1="0.5" x2="1" y2="0.5" gradientUnits="objectBoundingBox">
      <stop offset="0" stop-color="gray" stop-opacity="0.251"/>
      <stop offset="0.535" stop-color="gray" stop-opacity="0.122"/>
      <stop offset="1" stop-color="gray" stop-opacity="0.102"/>
    </linearGradient>
    <linearGradient id="linear-gradient-2" x1="0.5" x2="0.5" y2="1" gradientUnits="objectBoundingBox">
      <stop offset="0" stop-color="#ffc137"/>
      <stop offset="1" stop-color="#e76016"/>
    </linearGradient>
  </defs>
  <g id="confirmIcon" transform="translate(-0.004)">
    <path id="Path_31" data-name="Path 31" d="M389.279,76.854,332,112.1s0,72.7,57.282,112.36c57.282-39.656,57.282-112.36,57.282-112.36Z" transform="translate(-297.651 -74.572)" fill="#3f3d56"/>
    <path id="Path_32" data-name="Path 32" d="M599.679,76.854l-.979.6v146.32c.325.23.65.46.979.688C656.96,184.808,656.96,112.1,656.96,112.1Z" transform="translate(-507.709 -74.572)" fill="#6c63ff" opacity="0.04"/>
    <g id="Group_15" data-name="Group 15" transform="translate(73.261 64.301)" opacity="0.7">
      <path id="Path_33" data-name="Path 33" d="M349.42,312.163l10.8,9.9,13.386-19.311,5.4,4.5L360.219,331.06l-15.3-17.1Z" transform="translate(-344.921 -302.75)" fill="url(#linear-gradient)"/>
    </g>
    <path id="Path_34" data-name="Path 34" d="M364.571,311.97l8.76,8.03L385.74,301.75l4.38,3.65L373.33,327.3,360.921,313.43Z" transform="translate(-284.262 -237.662)" fill="#ffc137"/>
    <path id="Path_35" data-name="Path 35" d="M325.914,108.706a.78.78,0,0,1-.435-.943.375.375,0,0,0,.017-.087h0a.391.391,0,0,0-.7-.259h0a.373.373,0,0,0-.043.077.78.78,0,0,1-.943.435.375.375,0,0,0-.087-.017h0a.391.391,0,0,0-.259.7h0a.373.373,0,0,0,.077.043.78.78,0,0,1,.435.943.373.373,0,0,0-.017.087h0a.391.391,0,0,0,.7.259h0a.375.375,0,0,0,.043-.077.781.781,0,0,1,.943-.435.375.375,0,0,0,.087.017h0a.391.391,0,0,0,.259-.7h0A.376.376,0,0,0,325.914,108.706Z" transform="translate(-290.805 -98.521)" fill="#4d8af0" opacity="0.5"/>
    <path id="Path_36" data-name="Path 36" d="M179.914,433.706a.78.78,0,0,1-.435-.943.373.373,0,0,0,.017-.087h0a.391.391,0,0,0-.7-.259h0a.376.376,0,0,0-.043.077.78.78,0,0,1-.943.435.377.377,0,0,0-.087-.017h0a.391.391,0,0,0-.259.7h0a.376.376,0,0,0,.077.043.78.78,0,0,1,.435.943.376.376,0,0,0-.017.087h0a.391.391,0,0,0,.7.259h0a.374.374,0,0,0,.043-.077.78.78,0,0,1,.943-.435.377.377,0,0,0,.087.017h0a.391.391,0,0,0,.259-.7h0A.372.372,0,0,0,179.914,433.706Z" transform="translate(-175.814 -354.495)" fill="#4d8af0" opacity="0.5"/>
    <circle id="Ellipse_13" data-name="Ellipse 13" cx="1.274" cy="1.274" r="1.274" transform="translate(157.68 52.672)" fill="#f55f44" opacity="0.5"/>
    <circle id="Ellipse_14" data-name="Ellipse 14" cx="1.274" cy="1.274" r="1.274" transform="translate(24.513 143.787)" fill="#f55f44" opacity="0.5"/>
    <circle id="Ellipse_15" data-name="Ellipse 15" cx="1.274" cy="1.274" r="1.274" transform="translate(179.344 101.734)" fill="#f55f44" opacity="0.5"/>
    <path id="Path_37" data-name="Path 37" d="M864.914,137.706a.781.781,0,0,1-.435-.943.371.371,0,0,0,.017-.087h0a.391.391,0,0,0-.7-.259h0a.376.376,0,0,0-.043.077.78.78,0,0,1-.943.435.374.374,0,0,0-.087-.017h0a.391.391,0,0,0-.259.7h0a.376.376,0,0,0,.077.043.781.781,0,0,1,.435.943.377.377,0,0,0-.017.087h0a.391.391,0,0,0,.7.259h0a.373.373,0,0,0,.043-.077.781.781,0,0,1,.943-.435.373.373,0,0,0,.087.017h0a.391.391,0,0,0,.259-.7h0a.375.375,0,0,0-.077-.043Z" transform="translate(-715.328 -121.362)" fill="#4d8af0" opacity="0.5"/>
    <path id="Path_38" data-name="Path 38" d="M964.914,765.706a.781.781,0,0,1-.435-.943.38.38,0,0,0,.017-.087h0a.391.391,0,0,0-.7-.259h0a.38.38,0,0,0-.043.077.781.781,0,0,1-.943.435.37.37,0,0,0-.087-.017h0a.391.391,0,0,0-.259.7h0a.379.379,0,0,0,.077.043.781.781,0,0,1,.435.943.373.373,0,0,0-.017.086h0a.391.391,0,0,0,.7.259h0a.373.373,0,0,0,.043-.077.781.781,0,0,1,.943-.435.374.374,0,0,0,.087.017h0a.391.391,0,0,0,.259-.7h0A.378.378,0,0,0,964.914,765.706Z" transform="translate(-794.089 -615.982)" fill="#4d8af0" opacity="0.5"/>
    <path id="Path_39" data-name="Path 39" d="M172.914,243.706a.78.78,0,0,1-.435-.943.376.376,0,0,0,.017-.087h0a.391.391,0,0,0-.7-.259h0a.376.376,0,0,0-.043.077.78.78,0,0,1-.943.435.375.375,0,0,0-.087-.017h0a.391.391,0,0,0-.259.7h0a.375.375,0,0,0,.077.043.78.78,0,0,1,.435.943.374.374,0,0,0-.017.087h0a.391.391,0,0,0,.7.259h0a.375.375,0,0,0,.043-.077.78.78,0,0,1,.943-.435.375.375,0,0,0,.087.017h0a.391.391,0,0,0,.259-.7h0A.375.375,0,0,0,172.914,243.706Z" transform="translate(-170.3 -204.848)" fill="#4d8af0" opacity="0.5"/>
    <circle id="Ellipse_16" data-name="Ellipse 16" cx="1.274" cy="1.274" r="1.274" transform="translate(15.593 59.044)" fill="#47e6b1" opacity="0.5"/>
    <circle id="Ellipse_17" data-name="Ellipse 17" cx="1.274" cy="1.274" r="1.274" transform="translate(179.981 69.239)" fill="#47e6b1" opacity="0.5"/>
    <g id="Group_16" data-name="Group 16" transform="translate(122.424)" opacity="0.5">
      <rect id="Rectangle_62" data-name="Rectangle 62" width="0.637" height="3.611" transform="translate(1.487)" fill="#47e6b1"/>
      <rect id="Rectangle_63" data-name="Rectangle 63" width="0.637" height="3.611" transform="translate(3.611 1.487) rotate(90)" fill="#47e6b1"/>
    </g>
    <g id="Group_17" data-name="Group 17" transform="translate(124.76 141.451)" opacity="0.5">
      <rect id="Rectangle_64" data-name="Rectangle 64" width="0.637" height="3.611" transform="translate(1.487)" fill="#47e6b1"/>
      <rect id="Rectangle_65" data-name="Rectangle 65" width="0.637" height="3.611" transform="translate(3.611 1.487) rotate(90)" fill="#47e6b1"/>
    </g>
    <g id="Group_18" data-name="Group 18" transform="translate(4.124 149.097)" opacity="0.5">
      <rect id="Rectangle_66" data-name="Rectangle 66" width="0.637" height="3.611" transform="translate(1.487)" fill="#47e6b1"/>
      <rect id="Rectangle_67" data-name="Rectangle 67" width="0.637" height="3.611" transform="translate(3.611 1.487) rotate(90)" fill="#47e6b1"/>
    </g>
    <g id="Group_19" data-name="Group 19" transform="translate(149.185 84.106)" opacity="0.5">
      <rect id="Rectangle_68" data-name="Rectangle 68" width="0.637" height="3.611" transform="translate(1.487)" fill="#47e6b1"/>
      <rect id="Rectangle_69" data-name="Rectangle 69" width="0.637" height="3.611" transform="translate(3.611 1.487) rotate(90)" fill="#47e6b1"/>
    </g>
    <path id="Path_40" data-name="Path 40" d="M793.491,117.1l1.368,1.254L796.8,115.5l.684.57-2.623,3.421-1.939-2.167Z" transform="translate(-624.51 -90.969)" fill="#47e6b1" opacity="0.5"/>
    <rect id="Rectangle_70" data-name="Rectangle 70" width="4.724" height="6.074" transform="translate(125.195 51.001) rotate(-2.221)" fill="#6c63ff"/>
    <path id="Path_41" data-name="Path 41" d="M657.851,399.809s-6.537-3.123-6.432-.426,6.589,4.472,6.589,4.472Z" transform="translate(-549.231 -327.735)" fill="#ffb9b9"/>
    <path id="Path_42" data-name="Path 42" d="M676.54,499.532a94.333,94.333,0,0,0-4.224,13c-1.139,5.447-2.875,12.943-.643,18.26s8.579,20.941,8.644,22.627-.544,3.4.805,3.346,8.688-2.363,8.986-3.388-2.5-3.617-2.5-3.617l-6.919-21.681,7.219-14.125,5.207,21.072,1.02,26.3s5.005-1.545,5.732-.222c0,0,2.243-3.126,2.527-4.488s-1.059-27.311-1.059-27.311,4.594-29.557.885-29.413S683.982,491.139,676.54,499.532Z" transform="translate(-564.333 -404.635)" fill="url(#linear-gradient-2)"/>
    <path id="Path_43" data-name="Path 43" d="M700.508,767.4s-3.421,7.562-3.745,7.912-2.554,3.814-.868,3.748,5.667-1.908,8.6-4.723,6.793-7.692,6.443-8.017a19.9,19.9,0,0,0-2.75-1.244Z" transform="translate(-583.77 -616.626)" fill="#575a89"/>
    <path id="Path_44" data-name="Path 44" d="M779.9,793.516a19.647,19.647,0,0,1-.828,4.76c-.622,1.375-.544,3.4,1.142,3.332s6.043-.91,6.043-.91.259-2.036-.092-2.36-1.843-3.981-1.208-5.018S779.9,793.516,779.9,793.516Z" transform="translate(-649.487 -638.542)" fill="#575a89"/>
    <path id="Path_45" data-name="Path 45" d="M777.892,278.6s3.594,5.6,4.995,6.9-2.541,4.151-2.541,4.151l-7.055.949s.089-6.419-.275-7.081S777.892,278.6,777.892,278.6Z" transform="translate(-644.99 -233.47)" fill="#ffb9b9"/>
    <path id="Path_46" data-name="Path 46" d="M739.359,307.386s1.453,2.645,2.8,2.593,8.325-3.024,8.623-4.049,2.311,7.339,2.311,7.339l-17.07,30.04-4.164-2.878,2.018-17.638,1.657-9.519Z" transform="translate(-612.588 -254.926)" fill="#6c63ff"/>
    <path id="Path_47" data-name="Path 47" d="M719.618,326.746a9.446,9.446,0,0,0-1.047,4.431c0,.067.005.135.011.2.161,3.121,1.311,6.73,1.724,9.355.3,1.883.214,3.257-.888,3.58-2.671.779.389,1.336-9.945,4.776s-12.138.471-12.164-.2,1.464-5.8,1.113-6.121-4.9,4.242-6.276,3.62-.157-4.046-.157-4.046,3.1-7.211,3.032-8.9,4.691-9.637,4.691-9.637l3.236-21.062s1.244-2.75,2.917-3.152a4.144,4.144,0,0,1,3.061.557l-2.8,6.187-2.953,10.92.494,4.033s3.434-7.225,5.69-10.013,7.065-9.391,7.065-9.391,1.123-3.788.275-4.921,3.536-1.305,5.4,3.35c.99,2.467,2.6,6.146,3.606,9.572.9,3.035,1.322,5.872.432,7.493C724.78,319.853,721.361,323.109,719.618,326.746Z" transform="translate(-580.793 -247.401)" fill="#575a89"/>
    <path id="Path_48" data-name="Path 48" d="M825.409,364.678c-1.359,2.477-4.779,5.733-6.522,9.37-.455-1.64-1.011-3.338-1.011-3.338s-2.13-11.4,4.171-14.344a4.217,4.217,0,0,1,2.929.818C825.875,360.219,826.3,363.056,825.409,364.678Z" transform="translate(-680.062 -294.703)" opacity="0.1"/>
    <path id="Path_49" data-name="Path 49" d="M686.693,392.191l-5.342,1.558-7.418.288-.763,6.446,12.191.878S688.405,392.8,686.693,392.191Z" transform="translate(-566.363 -322.935)" fill="#575a89"/>
    <path id="Path_50" data-name="Path 50" d="M756.508,494.231s-7.147,1.186-5.516,3.337,7.963-.11,7.963-.11Z" transform="translate(-627.466 -403.302)" fill="#ffb9b9"/>
    <path id="Path_51" data-name="Path 51" d="M780.057,461.5c.161,3.121,1.311,6.73,1.724,9.355-2.277,2.155-4.442,4.056-5.258,4.087-1.686.065-4.4-.167-5.395.209s-1.584-6.017-1.584-6.017a5.529,5.529,0,0,1,3.254-3.165A37.024,37.024,0,0,0,780.057,461.5Z" transform="translate(-642.268 -377.527)" opacity="0.1"/>
    <path id="Path_52" data-name="Path 52" d="M783.884,346.829s5.706-.9,5.4,8.57.6,15.51-1.693,17.287-9.749,9.833-11.435,9.9-4.4-.167-5.395.209-1.584-6.017-1.584-6.017a5.529,5.529,0,0,1,3.254-3.165c2.658-1.116,8.921-5.073,8.868-6.422a43.017,43.017,0,0,0-1.584-6.017S777.582,349.775,783.884,346.829Z" transform="translate(-641.977 -287.189)" fill="#575a89"/>
    <circle id="Ellipse_18" data-name="Ellipse 18" cx="7.423" cy="7.423" r="7.423" transform="translate(120.447 38.578)" fill="#ffb9b9"/>
    <path id="Path_53" data-name="Path 53" d="M734.158,227.043a1.434,1.434,0,0,1-.624.313.445.445,0,0,1-.516-.358,1.85,1.85,0,0,1-.708.908c-.347.181-.883.029-.933-.359a1.637,1.637,0,0,1-.377.8.564.564,0,0,1-.793.026,20.393,20.393,0,0,1,.106,2.526,3.216,3.216,0,0,0,.909,2.289c.928.808,2.324.608,3.545.455a1.076,1.076,0,0,1,.555.03c.457.195.436.831.443,1.328a3.69,3.69,0,0,0,3.231,3.5,1.85,1.85,0,0,0,1.375-.336c.347-.294.524-.773.921-.993.646-.359,1.43.165,1.9.733s.938,1.268,1.67,1.372c.968.138,1.7-.849,2.067-1.757a10.242,10.242,0,0,0-.2-7.958C744.7,225.158,737.8,224.461,734.158,227.043Z" transform="translate(-611.286 -191.681)" fill="#2f2e41"/>
  </g>
</svg>
