<svg xmlns="http://www.w3.org/2000/svg" width="27.29" height="34.132" viewBox="0 0 27.29 34.132">
  <g id="Group_28" data-name="Group 28" transform="translate(-329.601 -54)">
    <path id="Path_23" data-name="Path 23" d="M33.705,29.208c-1.314-1.732-3.9-2.747-3.9-10.5,0-7.959-3.515-11.158-6.791-11.926-.307-.077-.529-.179-.529-.5V6.029a2.082,2.082,0,1,0-4.163,0v.247c0,.316-.222.427-.529.5C14.511,7.556,11,10.747,11,18.706c0,7.755-2.585,8.761-3.9,10.5A1.693,1.693,0,0,0,8.462,31.92H32.357A1.694,1.694,0,0,0,33.705,29.208Z" transform="translate(322.841 50.07)" fill="#ffc137"/>
    <path id="Path_22" data-name="Path 22" d="M18.716,32.857c2.653,0,4.1-1.877,4.1-4.521H14.6C14.6,30.981,16.054,32.857,18.716,32.857Z" transform="translate(324.513 55.275)" fill="#ffc137"/>
  </g>
</svg>
