<svg xmlns="http://www.w3.org/2000/svg" width="136" height="156" viewBox="0 0 136 156">
  <g id="Group_30" data-name="Group 30" transform="translate(-209 -107)">
    <rect id="Rectangle_9" data-name="Rectangle 9" width="136" height="156" rx="19" transform="translate(209 107)" fill="#667780"/>
    <path id="Icon_awesome-home" data-name="Icon awesome-home" d="M55.081,25.083,18.861,54.914v32.2A3.143,3.143,0,0,0,22,90.254L44.019,90.2a3.143,3.143,0,0,0,3.127-3.143v-18.8a3.143,3.143,0,0,1,3.143-3.143H62.862a3.143,3.143,0,0,1,3.143,3.143V87.04a3.143,3.143,0,0,0,3.143,3.153l22.006.061A3.143,3.143,0,0,0,94.3,87.11V54.892L58.086,25.083A2.4,2.4,0,0,0,55.081,25.083Zm57.212,20.276L95.87,31.821V4.611a2.357,2.357,0,0,0-2.357-2.357h-11a2.357,2.357,0,0,0-2.357,2.357V18.875L62.566,4.4a9.43,9.43,0,0,0-11.983,0L.855,45.359a2.357,2.357,0,0,0-.314,3.32l5.009,6.09a2.357,2.357,0,0,0,3.322.32l46.209-38.06a2.4,2.4,0,0,1,3.006,0L104.3,55.089a2.357,2.357,0,0,0,3.32-.314l5.009-6.09a2.357,2.357,0,0,0-.334-3.326Z" transform="translate(220.001 128.746)" fill="#fff"/>
    <text id="Home" transform="translate(257 250)" fill="#fff" font-size="16" font-family="SFProDisplay-Regular, SF Pro Display"><tspan x="0" y="0">Home</tspan></text>
  </g>
</svg>
