<svg xmlns="http://www.w3.org/2000/svg" xmlns:xlink="http://www.w3.org/1999/xlink" width="198.747" height="200.407" viewBox="0 0 198.747 200.407">
  <defs>
    <linearGradient id="linear-gradient" x1="0.5" x2="0.5" y2="1" gradientUnits="objectBoundingBox">
      <stop offset="0" stop-color="#ffc137"/>
      <stop offset="1" stop-color="#e76016"/>
    </linearGradient>
  </defs>
  <g id="Group_25" data-name="Group 25" transform="translate(-228 -105)">
    <ellipse id="Ellipse_92" data-name="Ellipse 92" cx="99.373" cy="5.837" rx="99.373" ry="5.837" transform="translate(228 293.733)" fill="#e6e6e6"/>
    <path id="Path_607" data-name="Path 607" d="M378.589,150.892H377.52V121.605a16.95,16.95,0,0,0-16.95-16.95H298.521a16.95,16.95,0,0,0-16.95,16.95v160.67a16.95,16.95,0,0,0,16.95,16.95h62.048a16.95,16.95,0,0,0,16.95-16.95V171.739h1.069Z" transform="translate(-37.937 0.345)" fill="#3f3d56"/>
    <path id="Path_608" data-name="Path 608" d="M385.263,132.425V292.858A12.659,12.659,0,0,1,372.6,305.516H310.259A12.659,12.659,0,0,1,297.6,292.859V132.425a12.659,12.659,0,0,1,12.659-12.659h7.564a6.017,6.017,0,0,0,5.569,8.285h35.547a6.017,6.017,0,0,0,5.569-8.285h8.1a12.659,12.659,0,0,1,12.659,12.658Z" transform="translate(-49.288 -10.356)" fill="#fff"/>
    <path id="Path_609" data-name="Path 609" d="M209.1,412.548h-1.311l.438-25.611h.438Z" transform="translate(68.009 -169.011)" fill="#e6e6e6"/>
    <path id="Path_610" data-name="Path 610" d="M379.883,406.651,382,403.38a49.036,49.036,0,0,0-2.171-5.083l-1.368,1.105,1.084-1.675c-1.033-2.033-1.845-3.314-1.845-3.314a47,47,0,0,0-5.663,13.771l2.716,4.2-3.006-2.428a19.851,19.851,0,0,0-.165,2.488c0,8.387,2.739,15.186,6.118,15.186s6.118-6.8,6.118-15.186a26.091,26.091,0,0,0-1.4-7.837Z" transform="translate(-101.677 -204.85)" fill="#ccc"/>
    <path id="Path_611" data-name="Path 611" d="M326.063,412.548h-1.311l.438-25.611h.438Z" transform="translate(-14.816 -169.011)" fill="#e6e6e6"/>
    <path id="Path_612" data-name="Path 612" d="M496.839,406.651l2.117-3.271a49.037,49.037,0,0,0-2.171-5.083l-1.368,1.105,1.084-1.675c-1.033-2.033-1.845-3.314-1.845-3.314a46.979,46.979,0,0,0-5.662,13.771l2.714,4.2-3.006-2.428a19.84,19.84,0,0,0-.165,2.488c0,8.387,2.739,15.186,6.118,15.186s6.118-6.8,6.118-15.186a26.09,26.09,0,0,0-1.4-7.837Z" transform="translate(-184.499 -204.85)" fill="#ccc"/>
    <circle id="Ellipse_94" data-name="Ellipse 94" cx="12.047" cy="12.047" r="12.047" transform="translate(264.068 134.546)" fill="#e6e6e6"/>
    <path id="Path_613" data-name="Path 613" d="M259.483,333.779h-2.7l.9-52.808h.9Z" transform="translate(33.319 -93.971)" fill="#e6e6e6"/>
    <path id="Path_614" data-name="Path 614" d="M416.215,210.485l4.364-6.743a101.118,101.118,0,0,0-4.477-10.48l-2.822,2.279,2.234-3.453c-2.13-4.191-3.8-6.832-3.8-6.832s-8.752,13.791-11.676,28.394l5.6,8.655-6.2-5.007a40.9,40.9,0,0,0-.34,5.129c0,17.294,5.648,31.313,12.615,31.313s12.615-14.019,12.615-31.313a53.856,53.856,0,0,0-2.886-16.159Z" transform="translate(-121.16 -56.732)" fill="#ccc"/>
    <path id="Path_615" data-name="Path 615" d="M379.03,548.189v35.9a12.93,12.93,0,0,1-12.659,13.184H304.025a12.93,12.93,0,0,1-12.659-13.184v-32.4a58.027,58.027,0,0,1,87.664-3.5Z" transform="translate(-43.054 -300.769)" fill="#e6e6e6"/>
    <circle id="Ellipse_95" data-name="Ellipse 95" cx="18.447" cy="18.447" r="18.447" transform="translate(273.765 245.939)" fill="#6c63ff" opacity="0.2"/>
    <circle id="Ellipse_96" data-name="Ellipse 96" cx="14.853" cy="14.853" r="14.853" transform="translate(277.358 249.532)" fill="#ffc137"/>
    <path id="Path_616" data-name="Path 616" d="M245.382,532.1l-5.235-6.73L243.191,523l2.478,3.187,8.373-8.838,2.8,2.652Z" transform="translate(45.098 -261.365)" fill="#fff"/>
    <g id="Group_24" data-name="Group 24" transform="translate(337.839 213.502)">
      <circle id="Ellipse_97" data-name="Ellipse 97" cx="9.631" cy="9.631" r="9.631" transform="translate(23.676 8.519)" fill="#2f2e41"/>
      <path id="Path_624" data-name="Path 624" d="M553.859,376.281l.742,3.5,13.854-1.2-1.095-5.166Z" transform="translate(-516.649 -304.065)" fill="#ffb8b8"/>
      <path id="Path_625" data-name="Path 625" d="M0,0H11.245V4.345h-6.9A4.345,4.345,0,0,1,0,0Z" transform="matrix(-0.207, -0.978, 0.978, -0.207, 36.131, 83.156)" fill="#2f2e41"/>
      <path id="Path_626" data-name="Path 626" d="M488.4,367.993l-1.559,3.221-13.162-4.482,2.3-4.753Z" transform="translate(-459.868 -295.964)" fill="#ffb8b8"/>
      <path id="Path_627" data-name="Path 627" d="M4.344,0h6.9V4.345H0A4.345,4.345,0,0,1,4.344,0Z" transform="translate(23.047 81.017) rotate(-64.164)" fill="#2f2e41"/>
      <path id="Path_628" data-name="Path 628" d="M683.958,520.3a3.135,3.135,0,0,0,3.709-3.058l21.706-20.012-5.39-4.175-19.652,21a3.152,3.152,0,0,0-.372,6.249Z" transform="translate(-681.362 -454.635)" fill="#ffb8b8"/>
      <circle id="Ellipse_98" data-name="Ellipse 98" cx="7.168" cy="7.168" r="7.168" transform="translate(24.93 13.879)" fill="#ffb8b8"/>
      <path id="Union_4" data-name="Union 4" d="M-987.346-949.96l-.084-.1.087-.1c.03-.031,2.777-3.172.032-8.773l-3.774,1.161-3.756-4.958,2.081-6.242,8.515-6.858a7.807,7.807,0,0,1,4.264-1.691,23.405,23.405,0,0,0,8.109-2.309,8.152,8.152,0,0,1,3.735-.817l.167.005a2.9,2.9,0,0,1,2.077.959,2.9,2.9,0,0,1,.282.369l.091.035A2.759,2.759,0,0,1-964-977.735l5.071,12.8-6.86,4.573c.082,5.949.6,11.646,2.031,14.625l.077.16-.173.044a39.681,39.681,0,0,1-8.675.968C-977.554-944.568-983.61-945.626-987.346-949.96Z" transform="translate(1011.057 1007.75)" fill="url(#linear-gradient)"/>
      <path id="Path_630" data-name="Path 630" d="M713.15,558.453s-18.97-1.751-21.013,3.794.292,8.172,3.794,9.339a122.071,122.071,0,0,0,11.966,2.627l3.794-4.669,9.923.584s11.057,6.413,14.114,13.271a8.978,8.978,0,0,0,7.523,5.322c2.451.17,4.63-.755,4.63-4.585,0-8.755-12.257-21.3-12.257-21.3Z" transform="translate(-688.452 -500.759)" fill="#2f2e41"/>
      <path id="Path_631" data-name="Path 631" d="M716.486,587.921s4.961-1.459,12.841,2.335" transform="translate(-706.235 -521.617)" fill="#2f2e41"/>
      <path id="Path_632" data-name="Path 632" d="M766.843,407.95a21.316,21.316,0,0,0,9.222,3.039l-.972-1.165a7.143,7.143,0,0,0,2.207.438,2.417,2.417,0,0,0,1.97-.922,2.247,2.247,0,0,0,.151-2.076,4.258,4.258,0,0,0-1.339-1.675,7.974,7.974,0,0,0-7.422-1.326,4.767,4.767,0,0,0-2.218,1.422,2.7,2.7,0,0,0-.544,2.5" transform="translate(-741.896 -391.475)" fill="#2f2e41"/>
      <path id="Path_633" data-name="Path 633" d="M795.309,372.148a22.029,22.029,0,0,1,5.585-7.741,11.285,11.285,0,0,1,5.383-2.908,5.787,5.787,0,0,1,5.577,1.9,7.162,7.162,0,0,1,1.1,4.836c-.112,1.686-.489,3.356-.453,5.044a10.351,10.351,0,0,0,14.746,9.15c-1.758.972-3.127,2.51-4.757,3.68s-3.783,1.973-5.636,1.2c-1.961-.817-2.86-3.041-3.562-5.046l-3.132-8.942a12.024,12.024,0,0,0-2.178-4.274,4.1,4.1,0,0,0-4.345-1.316,5.86,5.86,0,0,0-2.519,2.568,6.713,6.713,0,0,1-2.422,2.679c-1.092.543-2.714.209-3.071-.959" transform="translate(-762.054 -361.401)" fill="#2f2e41"/>
      <path id="Path_636" data-name="Path 636" d="M795.92,523.3a3.391,3.391,0,0,1-.37-.02,3.21,3.21,0,0,1,.365-6.4,3.107,3.107,0,0,1,.428.032l9.8-10.432-1.023-3.41,5.136-2.3,1.44,3.52a5.98,5.98,0,0,1-1.8,6.909l-10.787,8.58a2.981,2.981,0,0,1,.017.315,3.215,3.215,0,0,1-1.069,2.393A3.172,3.172,0,0,1,795.92,523.3Z" transform="translate(-760.205 -460.092)" fill="#ffb8b8"/>
    </g>
  </g>
</svg>
