<svg xmlns="http://www.w3.org/2000/svg" xmlns:xlink="http://www.w3.org/1999/xlink" width="246.721" height="192.386" viewBox="0 0 246.721 192.386">
  <defs>
    <linearGradient id="linear-gradient" x1="0.5" x2="0.5" y2="1" gradientUnits="objectBoundingBox">
      <stop offset="0" stop-color="#ffc137"/>
      <stop offset="0.448" stop-color="#f7a12c"/>
      <stop offset="1" stop-color="#e76016"/>
    </linearGradient>
  </defs>
  <g id="Group_2" data-name="Group 2" transform="translate(0)">
    <path id="Path_4" data-name="Path 4" d="M273.714,182.875l-49-61.227a16.45,16.45,0,0,1-7.924,4c-9.224,1.817-18.232-4.482-20.12-14.069a17.771,17.771,0,0,1,6.135-17.311L186.1,73.392,90.923,154.737,178.536,264.22Z" transform="translate(-90.923 -73.392)" fill="#f2f2f2"/>
    <line id="Line_2" data-name="Line 2" x2="225.829" transform="translate(20.893 191.386)" fill="none" stroke="#3f3d56" stroke-miterlimit="10" stroke-width="2"/>
    <circle id="Ellipse_2" data-name="Ellipse 2" cx="3.753" cy="3.753" r="3.753" transform="translate(153.775 10.722)" fill="none" stroke="#3f3d56" stroke-miterlimit="10" stroke-width="2"/>
    <circle id="Ellipse_3" data-name="Ellipse 3" cx="3.753" cy="3.753" r="3.753" transform="translate(203.366 119.822)" fill="none" stroke="#3f3d56" stroke-miterlimit="10" stroke-width="2"/>
    <circle id="Ellipse_4" data-name="Ellipse 4" cx="3.753" cy="3.753" r="3.753" transform="translate(39.657 20.131)" fill="none" stroke="#3f3d56" stroke-miterlimit="10" stroke-width="2"/>
    <circle id="Ellipse_5" data-name="Ellipse 5" cx="13.813" cy="13.813" r="13.813" transform="translate(108.098 21.722)" fill="#f2f2f2"/>
    <path id="Path_5" data-name="Path 5" d="M224.129,182.771H285.32a13.008,13.008,0,0,1,12.69,10.147L328.929,330.06a10.513,10.513,0,0,1-9.739,12.813l-62.905,3.1a13.889,13.889,0,0,1-14.351-11.4L224.4,237.611l-1.3.373-3.356-18.378,1.343-.336-4.9-27.065a8.009,8.009,0,0,1,7.947-9.434Z" transform="translate(-184.232 -154.954)" fill="#3f3d56"/>
    <path id="Path_6" data-name="Path 6" d="M294.972,194.4h7.143a8.989,8.989,0,0,1,8.783,7.073l29.678,136.023a5.57,5.57,0,0,1-5.078,6.746l-62.7,4.109a7.214,7.214,0,0,1-7.572-5.92L239.9,201.836a6.319,6.319,0,0,1,6.219-7.439H252.9a2.982,2.982,0,0,1,2.879,2.207h0a2.633,2.633,0,0,0,2.542,1.948h32.169a4.5,4.5,0,0,0,4.487-4.155Z" transform="translate(-201.939 -163.624)" fill="url(#linear-gradient)"/>
    <rect id="Rectangle_17" data-name="Rectangle 17" width="64.881" height="0.32" transform="translate(48.127 65.93)" fill="#2f2e41"/>
    <rect id="Rectangle_18" data-name="Rectangle 18" width="65.521" height="0.32" transform="translate(50.045 76.318)" fill="#2f2e41"/>
    <path id="Path_7" data-name="Path 7" d="M190.205,244.137l1.474-1.966-.256-.192-1.274,1.7-4.91-4.017-.2.248Z" transform="translate(-137.981 -178.712)" fill="#2f2e41"/>
    <path id="Path_8" data-name="Path 8" d="M223.51,426.369l1.474-1.966-.256-.191-1.274,1.7-4.91-4.017-.2.247Z" transform="translate(-162.815 -314.602)" fill="#2f2e41"/>
    <rect id="Rectangle_19" data-name="Rectangle 19" width="67.933" height="0.32" transform="translate(54.836 113.234) rotate(-1.213)" fill="#2f2e41"/>
    <rect id="Rectangle_20" data-name="Rectangle 20" width="69.215" height="0.32" transform="matrix(1, -0.023, 0.023, 1, 55.635, 122.821)" fill="#2f2e41"/>
    <path id="Path_9" data-name="Path 9" d="M414.943,611.858a15.182,15.182,0,1,0,30.363,0c0-.19,0-.379-.011-.567a15.18,15.18,0,1,0-30.355.567Z" transform="translate(-332.537 -463.388)" opacity="0.1"/>
    <path id="Path_10" data-name="Path 10" d="M420.614,635.935c0,.19,0,.379.011.567a15.183,15.183,0,0,0,28.914-6.48c0-.19,0-.379-.011-.567a15.183,15.183,0,0,0-28.914,6.48Z" transform="translate(-336.77 -481.552)" opacity="0.1"/>
    <circle id="Ellipse_6" data-name="Ellipse 6" cx="9.359" cy="9.359" r="9.359" transform="translate(166.868 50.383)" fill="#2f2e41"/>
    <path id="Path_11" data-name="Path 11" d="M719.977,693.081l1.78,7.629h-4.323l-1.78-8.647Z" transform="translate(-533.655 -516.064)" fill="#9f616a"/>
    <path id="Path_12" data-name="Path 12" d="M637.977,696.064v7.121l-4.323.509v-7.629Z" transform="translate(-472.508 -519.047)" fill="#9f616a"/>
    <path id="Path_13" data-name="Path 13" d="M803.969,450.713s-.509,10.935-1.017,11.7-5.086,11.7-5.086,11.7l-2.289-7.121s3.56-5.849,3.052-9.155a38,38,0,0,1-.188-7.374Z" transform="translate(-616.375 -354.566)" fill="#9f616a"/>
    <circle id="Ellipse_7" data-name="Ellipse 7" cx="7.121" cy="7.121" r="7.121" transform="translate(165.977 55.456)" fill="#9f616a"/>
    <path id="Path_14" data-name="Path 14" d="M769.223,322.456s-.254,10.172,1.526,11.7-10.172.254-10.172.254,2.543-7.121.509-8.647S769.223,322.456,769.223,322.456Z" transform="translate(-590.276 -259.116)" fill="#9f616a"/>
    <path id="Path_15" data-name="Path 15" d="M712.938,359.951s1.526-2.8,3.56-2.543,8.647.763,8.9,1.272a15.189,15.189,0,0,0,1.526,2.8c.509.509,4.323,1.272,4.578,4.323s-9.155,21.617-9.155,21.617,1.272,4.323,1.017,5.341,1.271,4.069,1.017,5.341,3.815,8.9,1.78,18.819v16.022s6.866,27.72,4.832,29.754-8.9.763-10.172,0-6.612-39.164-6.612-39.164l-2.543-12.97-.254,28.483s.509,23.905-1.272,24.668-8.647,1.017-9.155-.509c-.4-1.19-2.34-32.854-3.177-46.734a51.854,51.854,0,0,1,1.12-14.286c1.058-4.8,2.6-10.441,4.346-12.73,3.306-4.323,5.341-18.056,5.341-18.056l-4.323-7.884s2.543-2.543,4.069-2.543A20.957,20.957,0,0,0,712.938,359.951Z" transform="translate(-543.4 -285.167)" fill="#2f2e41"/>
    <path id="Path_16" data-name="Path 16" d="M810.026,383.456l1.341.913s.948,16.38.185,17.4-6.067.521-6.467-.375S810.026,383.456,810.026,383.456Z" transform="translate(-623.45 -304.603)" fill="#2f2e41"/>
    <path id="Path_17" data-name="Path 17" d="M668.066,437.85c.744,5.164,1.4,9.761-2.41,13.92A71.427,71.427,0,0,1,652.8,462.9c-.467,1.237-7.32,10.318-7.669,6.7s2.019-6.462,5.384-9.526,8.072-9.71,10.729-13.357,1.563-5.921,1.47-8.967S667.021,437.887,668.066,437.85Z" transform="translate(-504.168 -344.104)" fill="#9f616a"/>
    <path id="Path_18" data-name="Path 18" d="M714.073,781.255s-.254,2.848-1.017,3.611-2.8,1.78-2.543,4.578,1.907,2.925,1.907,2.925l-.127-.636.763.254.127.381H720.3a22.923,22.923,0,0,0-.127-3.942c-.254-1.272-.254-7.375-1.017-7.121s-2.8.509-3.306,1.526S713.819,783.493,714.073,781.255Z" transform="translate(-552.928 -601.237)" fill="#2f2e41"/>
    <path id="Path_19" data-name="Path 19" d="M808.214,781.255s.254,2.848,1.017,3.611,2.8,1.78,2.543,4.578-1.907,2.925-1.907,2.925l.127-.636-.763.254-.127.381h-7.121a22.918,22.918,0,0,1,.127-3.942c.254-1.272.254-7.375,1.017-7.121s2.8.509,3.306,1.526S808.469,783.493,808.214,781.255Z" transform="translate(-621.129 -601.237)" fill="#2f2e41"/>
    <path id="Path_20" data-name="Path 20" d="M717.647,378.456l-3.56.763s0,5.595-1.017,7.884-2.8,7.629-2.034,7.884,7.884,3.815,8.392,1.78S721.207,378.456,717.647,378.456Z" transform="translate(-553.195 -300.875)" fill="#2f2e41"/>
    <circle id="Ellipse_8" data-name="Ellipse 8" cx="9.359" cy="9.359" r="9.359" transform="translate(177.006 38.061)" fill="#2f2e41"/>
    <path id="Path_21" data-name="Path 21" d="M813.109,264.666a9.359,9.359,0,0,1-14.452-4.914,9.359,9.359,0,1,0,18.256-3.838A9.356,9.356,0,0,1,813.109,264.666Z" transform="translate(-618.672 -209.497)" fill="#2f2e41"/>
    <circle id="Ellipse_9" data-name="Ellipse 9" cx="6.863" cy="6.863" r="6.863" transform="translate(171.859 54.439)" fill="#2f2e41"/>
    <ellipse id="Ellipse_10" data-name="Ellipse 10" cx="6.083" cy="4.757" rx="6.083" ry="4.757" transform="translate(166.868 53.971)" fill="#2f2e41"/>
    <ellipse id="Ellipse_11" data-name="Ellipse 11" cx="1.155" cy="2.043" rx="1.155" ry="2.043" transform="translate(170.174 61.56)" fill="#a0616a"/>
  </g>
</svg>
