<svg xmlns="http://www.w3.org/2000/svg" xmlns:xlink="http://www.w3.org/1999/xlink" width="36" height="31.5" viewBox="0 0 36 31.5">
  <defs>
    <linearGradient id="linear-gradient" y1="0.091" x2="1" y2="1.127" gradientUnits="objectBoundingBox">
      <stop offset="0" stop-color="#ffba00"/>
      <stop offset="1" stop-color="#ff8900"/>
    </linearGradient>
  </defs>
  <path id="Icon_awesome-taxi" data-name="Icon awesome-taxi" d="M32.484,16.99l-1.547-5.965a5.744,5.744,0,0,0-5.4-4.275H24.75V4.5A2.25,2.25,0,0,0,22.5,2.25h-9A2.25,2.25,0,0,0,11.25,4.5V6.75h-.788a5.744,5.744,0,0,0-5.4,4.275L3.516,16.99A4.5,4.5,0,0,0,0,21.375V24.75a4.48,4.48,0,0,0,2.25,3.876V31.5A2.25,2.25,0,0,0,4.5,33.75H6.75A2.25,2.25,0,0,0,9,31.5V29.25H27V31.5a2.25,2.25,0,0,0,2.25,2.25H31.5a2.25,2.25,0,0,0,2.25-2.25V28.626A4.481,4.481,0,0,0,36,24.75V21.375A4.5,4.5,0,0,0,32.484,16.99ZM6.75,24.75A2.25,2.25,0,1,1,9,22.5,2.25,2.25,0,0,1,6.75,24.75Zm1.445-7.875L9.4,12.209a1.273,1.273,0,0,1,1.059-.959H25.538a1.25,1.25,0,0,1,1.044.9l1.223,4.721ZM29.25,24.75A2.25,2.25,0,1,1,31.5,22.5,2.25,2.25,0,0,1,29.25,24.75Z" transform="translate(0 -2.25)" fill="url(#linear-gradient)"/>
</svg>
