<svg xmlns="http://www.w3.org/2000/svg" width="17.125" height="17.125" viewBox="0 0 17.125 17.125">
  <path id="Icon_material-language" data-name="Icon material-language" d="M11.554,3a8.563,8.563,0,1,0,8.571,8.563A8.558,8.558,0,0,0,11.554,3Zm5.934,5.138H14.962A13.4,13.4,0,0,0,13.78,5.089,6.875,6.875,0,0,1,17.488,8.138ZM11.563,4.747A12.062,12.062,0,0,1,13.2,8.138H9.927A12.062,12.062,0,0,1,11.563,4.747ZM4.935,13.275a6.7,6.7,0,0,1,0-3.425H7.829a14.141,14.141,0,0,0-.12,1.713,14.141,14.141,0,0,0,.12,1.713Zm.7,1.713H8.163a13.4,13.4,0,0,0,1.182,3.048A6.839,6.839,0,0,1,5.637,14.988Zm2.526-6.85H5.637A6.839,6.839,0,0,1,9.345,5.089,13.4,13.4,0,0,0,8.163,8.138Zm3.4,10.241a12.062,12.062,0,0,1-1.635-3.391H13.2A12.062,12.062,0,0,1,11.563,18.378Zm2-5.1H9.559a12.6,12.6,0,0,1-.137-1.713A12.488,12.488,0,0,1,9.559,9.85h4.007a12.489,12.489,0,0,1,.137,1.713A12.6,12.6,0,0,1,13.566,13.275Zm.214,4.761a13.4,13.4,0,0,0,1.182-3.048h2.526a6.875,6.875,0,0,1-3.708,3.048ZM15.3,13.275a14.141,14.141,0,0,0,.12-1.713A14.141,14.141,0,0,0,15.3,9.85H18.19a6.7,6.7,0,0,1,0,3.425Z" transform="translate(-3 -3)" fill="#ffc137"/>
</svg>
