<svg xmlns="http://www.w3.org/2000/svg" width="15.13" height="17.291" viewBox="0 0 15.13 17.291">
  <path id="Icon_awesome-address-book" data-name="Icon awesome-address-book" d="M14.725,5.4A.406.406,0,0,0,15.13,5V3.647a.406.406,0,0,0-.405-.405h-.675V1.621A1.621,1.621,0,0,0,12.428,0H1.621A1.621,1.621,0,0,0,0,1.621V15.67a1.621,1.621,0,0,0,1.621,1.621H12.428a1.621,1.621,0,0,0,1.621-1.621V14.049h.675a.406.406,0,0,0,.405-.405V12.293a.406.406,0,0,0-.405-.405h-.675V9.726h.675a.406.406,0,0,0,.405-.405V7.97a.406.406,0,0,0-.405-.405h-.675V5.4Zm-7.7-1.081A2.161,2.161,0,1,1,4.863,6.484,2.163,2.163,0,0,1,7.025,4.323Zm3.783,8a.708.708,0,0,1-.757.648H4a.708.708,0,0,1-.757-.648v-.648a2.127,2.127,0,0,1,2.27-1.945h.169a3.479,3.479,0,0,0,2.688,0h.169a2.127,2.127,0,0,1,2.27,1.945Z" fill="#ffc137"/>
</svg>
