<svg xmlns="http://www.w3.org/2000/svg" width="25.529" height="25.529" viewBox="0 0 25.529 25.529">
  <path id="Icon_material-call" data-name="Icon material-call" d="M9.634,15.548a21.485,21.485,0,0,0,9.346,9.346l3.12-3.12a1.41,1.41,0,0,1,1.447-.34,16.178,16.178,0,0,0,5.063.808,1.422,1.422,0,0,1,1.418,1.418v4.95a1.422,1.422,0,0,1-1.418,1.418A24.109,24.109,0,0,1,4.5,5.918,1.422,1.422,0,0,1,5.918,4.5h4.964A1.422,1.422,0,0,1,12.3,5.918a16.112,16.112,0,0,0,.808,5.063,1.423,1.423,0,0,1-.355,1.447Z" transform="translate(-4.5 -4.5)" fill="#20c177"/>
</svg>
