<svg xmlns="http://www.w3.org/2000/svg" width="22.875" height="22.875" viewBox="0 0 22.875 22.875">
  <path id="Icon_awesome-check-circle" data-name="Icon awesome-check-circle" d="M23.437,12A11.437,11.437,0,1,1,12,.563,11.437,11.437,0,0,1,23.437,12Zm-12.76,6.056L19.163,9.57a.738.738,0,0,0,0-1.044L18.119,7.483a.738.738,0,0,0-1.044,0L10.155,14.4,6.924,11.173a.738.738,0,0,0-1.044,0L4.837,12.216a.738.738,0,0,0,0,1.044l4.8,4.8a.738.738,0,0,0,1.044,0Z" transform="translate(-0.563 -0.563)" fill="#ffc137"/>
</svg>
