<svg xmlns="http://www.w3.org/2000/svg" xmlns:xlink="http://www.w3.org/1999/xlink" width="33.165" height="33.166" viewBox="0 0 33.165 33.166">
  <defs>
    <linearGradient id="linear-gradient" x1="0.854" y1="0.358" x2="0" y2="1" gradientUnits="objectBoundingBox">
      <stop offset="0" stop-color="#ffc137"/>
      <stop offset="1" stop-color="#e76016"/>
    </linearGradient>
  </defs>
  <path id="Icon_awesome-tools" data-name="Icon awesome-tools" d="M32.457,25.63l-7.585-7.585a4.809,4.809,0,0,0-5.532-.9l-6.9-6.9V6.218L4.145,0,0,4.145l6.218,8.291H10.24l6.9,6.9a4.82,4.82,0,0,0,.9,5.532l7.585,7.585a2.408,2.408,0,0,0,3.413,0l3.413-3.413a2.42,2.42,0,0,0,0-3.413ZM21.485,14.574a6.815,6.815,0,0,1,4.851,2.008l1.257,1.257a9.168,9.168,0,0,0,2.837-1.911,9.315,9.315,0,0,0,2.455-8.854.775.775,0,0,0-1.3-.356l-4.819,4.819-4.4-.732-.732-4.4,4.819-4.819A.782.782,0,0,0,26.083.279a9.33,9.33,0,0,0-8.848,2.455,9.179,9.179,0,0,0-2.669,6.71l5.318,5.318a7.056,7.056,0,0,1,1.6-.188Zm-6.73,5.311-3.673-3.673L1.211,26.09a4.145,4.145,0,0,0,5.862,5.862l8.006-8.006a6.956,6.956,0,0,1-.324-4.061ZM4.145,30.572A1.555,1.555,0,1,1,5.7,29.018,1.559,1.559,0,0,1,4.145,30.572Z" transform="translate(0.004)" fill="url(#linear-gradient)"/>
</svg>
