<svg xmlns="http://www.w3.org/2000/svg" xmlns:xlink="http://www.w3.org/1999/xlink" width="36.652" height="36.652" viewBox="0 0 36.652 36.652">
  <defs>
    <linearGradient id="linear-gradient" x1="0.854" y1="0.358" x2="0" y2="1" gradientUnits="objectBoundingBox">
      <stop offset="0" stop-color="#ffc137"/>
      <stop offset="1" stop-color="#e76016"/>
    </linearGradient>
  </defs>
  <path id="Icon_awesome-headset" data-name="Icon awesome-headset" d="M13.745,14.89A2.291,2.291,0,0,0,11.454,12.6H10.308a4.581,4.581,0,0,0-4.582,4.582v3.436A4.581,4.581,0,0,0,10.308,25.2h1.145a2.291,2.291,0,0,0,2.291-2.291ZM26.344,25.2a4.581,4.581,0,0,0,4.582-4.582V17.181A4.581,4.581,0,0,0,26.344,12.6H25.2a2.291,2.291,0,0,0-2.291,2.291v8.018A2.291,2.291,0,0,0,25.2,25.2ZM18.326,0C8.1,0,.328,8.507,0,18.326v1.145a1.145,1.145,0,0,0,1.145,1.145H2.291a1.145,1.145,0,0,0,1.145-1.145V18.326a14.89,14.89,0,0,1,29.78,0h-.009c.006.174.009,11.863.009,11.863a3.027,3.027,0,0,1-3.027,3.027H22.908a3.436,3.436,0,0,0-3.436-3.436H17.181a3.436,3.436,0,0,0,0,6.872H30.189a6.463,6.463,0,0,0,6.463-6.463V18.326C36.324,8.507,28.55,0,18.326,0Z" fill="url(#linear-gradient)"/>
</svg>
