<svg xmlns="http://www.w3.org/2000/svg" xmlns:xlink="http://www.w3.org/1999/xlink" width="28.199" height="22.56" viewBox="0 0 28.199 22.56">
  <defs>
    <linearGradient id="linear-gradient" x1="1.04" y1="0.084" x2="0.061" y2="1" gradientUnits="objectBoundingBox">
      <stop offset="0" stop-color="#ffc137"/>
      <stop offset="1" stop-color="#e76016"/>
    </linearGradient>
  </defs>
  <path id="Icon_awesome-ambulance" data-name="Icon awesome-ambulance" d="M27.494,15.51h-.7V10.747a2.115,2.115,0,0,0-.621-1.494l-4.4-4.4a2.115,2.115,0,0,0-1.494-.621H18.33V2.115A2.116,2.116,0,0,0,16.215,0H2.115A2.116,2.116,0,0,0,0,2.115v14.1A2.116,2.116,0,0,0,2.115,18.33h.7a4.23,4.23,0,0,0,8.46,0h5.64a4.23,4.23,0,0,0,8.46,0h2.115a.707.707,0,0,0,.7-.7v-1.41A.707.707,0,0,0,27.494,15.51ZM7.05,20.445A2.115,2.115,0,1,1,9.165,18.33,2.116,2.116,0,0,1,7.05,20.445ZM13.395,9.517a.354.354,0,0,1-.352.352H10.575v2.467a.354.354,0,0,1-.352.352H8.107a.354.354,0,0,1-.352-.352V9.87H5.287a.354.354,0,0,1-.352-.352V7.4a.354.354,0,0,1,.352-.352H7.755V4.582a.354.354,0,0,1,.352-.352h2.115a.354.354,0,0,1,.352.352V7.05h2.467a.354.354,0,0,1,.352.352ZM21.15,20.445a2.115,2.115,0,1,1,2.115-2.115A2.116,2.116,0,0,1,21.15,20.445Zm3.525-9.165H18.33V6.345h1.943l4.4,4.4Z" fill="url(#linear-gradient)"/>
</svg>
