<svg xmlns="http://www.w3.org/2000/svg" xmlns:xlink="http://www.w3.org/1999/xlink" width="37.02" height="37.02" viewBox="0 0 37.02 37.02">
  <defs>
    <linearGradient id="linear-gradient" x1="0.5" x2="0.5" y2="0.815" gradientUnits="objectBoundingBox">
      <stop offset="0" stop-color="#8dc63f"/>
      <stop offset="0" stop-color="#ffc137"/>
      <stop offset="1" stop-color="#e76016"/>
    </linearGradient>
  </defs>
  <path id="Icon_ionic-ios-paper" data-name="Icon ionic-ios-paper" d="M10.138,6.223V34.878a1.25,1.25,0,0,1-1.246,1.246h0a1.25,1.25,0,0,1-1.246-1.246V9.07H6.223a2.845,2.845,0,0,0-2.848,2.848V37.547A2.845,2.845,0,0,0,6.223,40.4H37.645a2.752,2.752,0,0,0,2.75-2.75V6.223a2.845,2.845,0,0,0-2.848-2.848l-24.739.178A2.551,2.551,0,0,0,10.138,6.223ZM16.012,9.07h7.475a1.25,1.25,0,0,1,1.246,1.246h0a1.25,1.25,0,0,1-1.246,1.246H16.012a1.25,1.25,0,0,1-1.246-1.246h0A1.25,1.25,0,0,1,16.012,9.07Zm0,14.238H29.182a1.25,1.25,0,0,1,1.246,1.246h0A1.25,1.25,0,0,1,29.182,25.8H16.012a1.25,1.25,0,0,1-1.246-1.246h0A1.25,1.25,0,0,1,16.012,23.309ZM33.454,32.92H16.012a1.25,1.25,0,0,1-1.246-1.246h0a1.25,1.25,0,0,1,1.246-1.246H33.454A1.25,1.25,0,0,1,34.7,31.674h0A1.25,1.25,0,0,1,33.454,32.92Zm0-14.238H16.012a1.25,1.25,0,0,1-1.246-1.246h0a1.25,1.25,0,0,1,1.246-1.246H33.454A1.25,1.25,0,0,1,34.7,17.435h0A1.25,1.25,0,0,1,33.454,18.681Z" transform="translate(-3.375 -3.375)" fill="url(#linear-gradient)"/>
</svg>
