<svg xmlns="http://www.w3.org/2000/svg" xmlns:xlink="http://www.w3.org/1999/xlink" width="31.674" height="38.219" viewBox="0 0 31.674 38.219">
  <defs>
    <linearGradient id="linear-gradient" x1="1.019" y1="0.935" x2="0.125" y2="0.194" gradientUnits="objectBoundingBox">
      <stop offset="0" stop-color="#0089ff"/>
      <stop offset="1" stop-color="#8dc63f"/>
    </linearGradient>
  </defs>
  <path id="Path_28" data-name="Path 28" d="M48.395,48.658V43.725a10.961,10.961,0,0,0-7.573-10.41V20.225a3.371,3.371,0,0,0-6.742,0v13.09a10.961,10.961,0,0,0-7.573,10.41v4.933a3.236,3.236,0,0,0,.6,6.416H47.792a3.239,3.239,0,0,0,3.235-3.188c0-.009,0-.016,0-.025v-.009c0-.005,0-.011,0-.016A3.241,3.241,0,0,0,48.395,48.658Zm-12.9-15.7V20.225a1.952,1.952,0,0,1,3.9,0V32.957l-.059-.008c-.288-.05-.58-.091-.876-.118l-.107-.008-.2-.015v-5.14a.709.709,0,1,0-1.419,0v5.14l-.2.015-.107.008c-.3.028-.588.068-.876.118ZM27.926,43.725A9.541,9.541,0,0,1,35,34.52c.192-.051.385-.1.58-.135h0c.193-.038.386-.069.581-.1l.084-.011q.269-.034.54-.053l.054,0a9.662,9.662,0,0,1,1.216,0l.054,0q.271.019.54.053l.084.011c.195.026.388.057.581.1h0c.195.039.388.084.58.135a9.541,9.541,0,0,1,7.078,9.205V48.6H27.926Zm19.867,9.93H27.109a1.818,1.818,0,1,1,0-3.637H47.792a1.819,1.819,0,0,1,1.682,1.134H44.5a.709.709,0,1,0,0,1.419h4.956A1.819,1.819,0,0,1,47.792,53.655Zm-.856-31.232V21.338a.709.709,0,0,1,1.419,0v1.085a.709.709,0,1,1-1.419,0Zm-2.4,1.4a.709.709,0,0,1,.709-.709h1.084a.709.709,0,1,1,0,1.419H45.241A.709.709,0,0,1,44.532,23.822Zm3.9,1.321v1.084a.709.709,0,0,1-1.419,0V25.143a.709.709,0,1,1,1.419,0Zm-.1-1.4a.709.709,0,0,1,.709-.709H50.13a.709.709,0,0,1,0,1.419H49.046A.71.71,0,0,1,48.336,23.744ZM21.76,27.173V26.089a.709.709,0,1,1,1.419,0v1.084a.709.709,0,0,1-1.419,0Zm.1,1.4a.709.709,0,0,1-.709.709H20.064a.709.709,0,0,1,0-1.419h1.084A.709.709,0,0,1,21.858,28.573Zm1.4,1.321v1.084a.709.709,0,1,1-1.419,0V29.894a.709.709,0,1,1,1.419,0Zm1.7-.69H23.869a.709.709,0,1,1,0-1.419h1.085a.709.709,0,0,1,0,1.419Z" transform="translate(-19.355 -16.854)" fill="url(#linear-gradient)"/>
</svg>
