<svg xmlns="http://www.w3.org/2000/svg" xmlns:xlink="http://www.w3.org/1999/xlink" width="41.71" height="43.007" viewBox="0 0 41.71 43.007">
  <defs>
    <linearGradient id="linear-gradient" x1="0.957" y1="1.003" x2="-0.001" y2="0.074" gradientUnits="objectBoundingBox">
      <stop offset="0" stop-color="#00d7df"/>
      <stop offset="1" stop-color="#8dc63f"/>
    </linearGradient>
  </defs>
  <path id="Path_29" data-name="Path 29" d="M27.458,35.26a.732.732,0,0,1,.732.732v1.119a.732.732,0,1,1-1.464,0V35.992A.732.732,0,0,1,27.458,35.26Zm-1.364,2.564H24.975a.732.732,0,0,0,0,1.464h1.119a.732.732,0,1,0,0-1.464Zm1.445,1.363a.732.732,0,0,0-.732.732v1.119a.732.732,0,0,0,1.464,0V39.919A.732.732,0,0,0,27.539,39.187Zm1.363.019h1.119a.732.732,0,1,0,0-1.464H28.9a.732.732,0,0,0,0,1.464Zm26.132,15.56-.008.007-.006.007a2.8,2.8,0,0,1-3.965,0l-5.715-5.715a3.039,3.039,0,0,0-3.178-.705L31.349,52.1c-.007,0-.015,0-.023,0a.729.729,0,0,1-.217.036H31.1a.723.723,0,0,1-.205-.036c-.012,0-.024-.006-.036-.011a.718.718,0,0,1-.182-.1c-.012-.008-.022-.017-.033-.026s-.033-.024-.047-.039l-.673-.673c-.013-.011-.026-.02-.038-.031a17.586,17.586,0,0,0-12.518-5.185H14.877a.732.732,0,0,1,0-1.464h2.486a19.03,19.03,0,0,1,10.732,3.283,2.112,2.112,0,0,1,.531-.914L47.181,28.386a2.111,2.111,0,0,1,.576-.4l-4.979-4.979c-.034-.034-.069-.065-.1-.1a7.147,7.147,0,0,0-1.6,4.046.732.732,0,0,1-1.455,0c-.412-3.711-2.417-5.715-6.127-6.127a.732.732,0,0,1,0-1.455,7.585,7.585,0,0,0,3.575-1.225,5.972,5.972,0,0,1-.734.437,21.251,21.251,0,0,0-8.628-1.819H14.877a.732.732,0,1,1,0-1.464H27.708a22.682,22.682,0,0,1,10.014,2.312,5.335,5.335,0,0,1-.638.524,6.483,6.483,0,0,0,2.539-4.892.732.732,0,0,1,1.455,0c.413,3.71,2.417,5.715,6.128,6.127a.732.732,0,0,1,0,1.455,7.745,7.745,0,0,0-3.42,1.117l.028.027,8.366,8.366c.015.015.025.031.038.046l.028.034a.716.716,0,0,1,.1.184c0,.01.005.019.008.029a.734.734,0,0,1,.037.212v.009a.729.729,0,0,1-.036.221c0,.007,0,.015,0,.022L48.618,41.9a3.045,3.045,0,0,0,.7,3.188L55.034,50.8a2.8,2.8,0,0,1,0,3.966ZM44.122,20.1a6.881,6.881,0,0,1-3.772-3.772A6.879,6.879,0,0,1,36.578,20.1a6.879,6.879,0,0,1,3.772,3.772A6.881,6.881,0,0,1,44.122,20.1Zm-.946,2.308a5.337,5.337,0,0,0-.5.5A5.545,5.545,0,0,1,43.176,22.409Zm.028-.026a5.281,5.281,0,0,1,.58-.438A5.473,5.473,0,0,0,43.2,22.384Zm6.725,11.24-7.5,7.5L54.362,53.061a1.352,1.352,0,0,0,.028-.277A1.33,1.33,0,0,0,54,51.837l-5.715-5.715a4.509,4.509,0,0,1-1.046-4.713ZM29.465,48.451a.665.665,0,0,0,.2.474l1.449,1.449,19.5-19.5-1.449-1.449a.672.672,0,0,0-.948,0L29.661,47.977A.666.666,0,0,0,29.465,48.451Zm23.848,5.659L41.379,42.175l-7.5,7.5,7.8-2.7a4.44,4.44,0,0,1,1.515-.266,4.512,4.512,0,0,1,3.187,1.316l5.715,5.715A1.36,1.36,0,0,0,53.313,54.109ZM17.96,26.966a.732.732,0,0,1,1.455,0,3.19,3.19,0,0,0,3.163,3.163.732.732,0,0,1,0,1.455,3.19,3.19,0,0,0-3.163,3.163.732.732,0,0,1-1.455,0A3.19,3.19,0,0,0,14.8,31.584a.732.732,0,0,1,0-1.455A3.19,3.19,0,0,0,17.96,26.966Zm-.7,3.891a4.148,4.148,0,0,1,1.429,1.429,4.147,4.147,0,0,1,1.429-1.429,4.143,4.143,0,0,1-1.429-1.429A4.144,4.144,0,0,1,17.258,30.856Z" transform="translate(-14.145 -12.595)" fill="url(#linear-gradient)"/>
</svg>
