<svg xmlns="http://www.w3.org/2000/svg" xmlns:xlink="http://www.w3.org/1999/xlink" width="43.835" height="43.969" viewBox="0 0 43.835 43.969">
  <defs>
    <linearGradient id="linear-gradient" x1="0.923" y1="0.819" x2="0.13" y2="0.028" gradientUnits="objectBoundingBox">
      <stop offset="0" stop-color="#20c177"/>
      <stop offset="1" stop-color="#8dc63f"/>
    </linearGradient>
  </defs>
  <path id="Path_26" data-name="Path 26" d="M56.088,23.578V22.3a.835.835,0,1,1,1.671,0v1.277a.835.835,0,1,1-1.671,0Zm2.391,2.483h1.277a.835.835,0,0,0,0-1.671H58.479a.835.835,0,1,0,0,1.671Zm-1.648-.115a.835.835,0,0,0-.835.835v1.276a.835.835,0,1,0,1.671,0V26.781A.835.835,0,0,0,56.831,25.946ZM54,25.968h1.277a.835.835,0,1,0,0-1.671H54a.835.835,0,1,0,0,1.671ZM21.983,27.889a.835.835,0,0,0,.835-.835V25.777a.835.835,0,0,0-1.671,0v1.277A.835.835,0,0,0,21.983,27.889Zm1.556,1.648h1.276a.835.835,0,1,0,0-1.671H23.538a.835.835,0,0,0,0,1.671Zm-1.648-.115a.835.835,0,0,0-.835.835v1.277a.835.835,0,1,0,1.671,0V30.257A.835.835,0,0,0,21.89,29.422Zm-2.833.022h1.277a.835.835,0,1,0,0-1.671H19.057a.835.835,0,0,0,0,1.671Zm-.975,10.738a.836.836,0,0,1,.41-.725L37.347,28.315a.837.837,0,0,1,.844,0l4.5,2.6,2.744-1.567a.836.836,0,0,1,.83,0l13.186,7.577a.835.835,0,0,1,.021,1.436l-1.9,1.168L61.5,41.8a.835.835,0,0,1-.007,1.45L42.321,54.109a.835.835,0,0,1-.828,0L18.5,40.9A.837.837,0,0,1,18.083,40.182Zm34.628-1.537-9.19-5.319v5.118Zm-8.648,1.482.846,1.665,5.424-1.527Zm.3-8.244,11.447,6.625.123.071,1.467-.9-11.554-6.64ZM20.577,40.167l9.895,5.683,5.245-3.092a.836.836,0,0,1,.849,1.44l-4.427,2.61,9.773,5.613,17.489-9.9-3.569-2.065L44.7,43.586a.848.848,0,0,1-.227.031.836.836,0,0,1-.745-.457L42.125,40l-4.435-.876a.835.835,0,0,1-.505-1.322l4.267-5.676L37.776,30Zm18.742-2.421,2.531.5V34.379ZM60.67,47.406,41.912,58.029,19.334,45.06A.836.836,0,1,0,18.5,46.51L41.493,59.716a.835.835,0,0,0,.828,0L61.493,48.859a.835.835,0,1,0-.823-1.453Zm0,5.609L41.912,63.637,19.334,50.669a.836.836,0,1,0-.832,1.449L41.493,65.324a.835.835,0,0,0,.828,0L61.493,54.468a.835.835,0,1,0-.823-1.453ZM37.422,42.932a.813.813,0,0,0,.587.249,1.047,1.047,0,0,0,.167-.019.575.575,0,0,0,.153-.048.69.69,0,0,0,.272-.181.857.857,0,0,0,.182-.267.814.814,0,0,0,.062-.32.839.839,0,0,0-.244-.592.861.861,0,0,0-1.179,0,.843.843,0,0,0-.248.592.909.909,0,0,0,.062.32A.788.788,0,0,0,37.422,42.932Zm2.071-1.579a.8.8,0,0,0,.187.267.813.813,0,0,0,.587.249.788.788,0,0,0,.319-.067.693.693,0,0,0,.273-.181.848.848,0,0,0,.105-.124,1.072,1.072,0,0,0,.076-.143.99.99,0,0,0,.048-.158.94.94,0,0,0,.014-.162.889.889,0,0,0-.014-.162.849.849,0,0,0-.048-.158.682.682,0,0,0-.076-.143.948.948,0,0,0-.105-.129.862.862,0,0,0-1.179,0,.829.829,0,0,0-.181.272.927.927,0,0,0-.067.32.613.613,0,0,0,.019.162A.964.964,0,0,0,39.493,41.353Z" transform="translate(-18.082 -21.465)" fill="url(#linear-gradient)"/>
</svg>
