<svg xmlns="http://www.w3.org/2000/svg" xmlns:xlink="http://www.w3.org/1999/xlink" width="55.143" height="56.391" viewBox="0 0 55.143 56.391">
  <defs>
    <linearGradient id="linear-gradient" x1="0.745" y1="0.863" x2="0.04" y2="0.173" gradientUnits="objectBoundingBox">
      <stop offset="0" stop-color="#0089ff"/>
      <stop offset="1" stop-color="#8dc63f"/>
    </linearGradient>
  </defs>
  <path id="Path_30" data-name="Path 30" d="M63.48,34.216V32.621a.963.963,0,0,1,1.927,0v1.595a.963.963,0,0,1-1.927,0ZM62.5,35.311H60.907a.963.963,0,0,0,0,1.927H62.5a.963.963,0,1,0,0-1.927Zm2.059,1.942a.963.963,0,0,0-.963.963v1.595a.963.963,0,1,0,1.927,0V38.216A.964.964,0,0,0,64.56,37.253ZM68.1,35.194H66.5a.963.963,0,1,0,0,1.927H68.1a.963.963,0,1,0,0-1.927ZM26.3,16.3a.963.963,0,0,0,.963-.963V13.746a.963.963,0,0,0-1.927,0v1.594A.963.963,0,0,0,26.3,16.3Zm-3.537,2.058h1.594a.963.963,0,0,0,0-1.927H22.759a.963.963,0,1,0,0,1.927Zm3.653.015a.964.964,0,0,0-.963.963v1.595a.963.963,0,0,0,1.927,0V19.341A.963.963,0,0,0,26.412,18.378Zm1.943-.131h1.594a.963.963,0,1,0,0-1.927H28.355a.963.963,0,0,0,0,1.927ZM39.04,61.84a3.175,3.175,0,1,1-3.175-3.175A3.178,3.178,0,0,1,39.04,61.84Zm-1.927,0a1.248,1.248,0,1,0-1.248,1.248A1.249,1.249,0,0,0,37.113,61.84Zm-9.8-1.081v.187a2.1,2.1,0,0,1-2.094,2.094H19.909a2.1,2.1,0,0,1-2.093-2.094v-.187a2.1,2.1,0,0,1,2.093-2.094h5.315A2.1,2.1,0,0,1,27.318,60.759Zm-1.927,0a.167.167,0,0,0-.167-.167H19.909a.167.167,0,0,0-.166.167v.187a.167.167,0,0,0,.166.167h5.315a.167.167,0,0,0,.167-.167Zm33-17.129v2.878a1.841,1.841,0,0,1-1.839,1.839H47.944A1.841,1.841,0,0,1,46.1,46.507V43.629a1.841,1.841,0,0,1,1.839-1.839h1.447v-19.3a4.2,4.2,0,0,0-8.4,0v16.66h0c0,.029,0,.056,0,.085V56.6A7.328,7.328,0,1,1,30.626,66.964H20.411a6.5,6.5,0,0,1-6.494-6.494V39.233q0-.333.017-.663c.008-.166.022-.329.036-.493,0-.048.007-.1.011-.145a13.526,13.526,0,0,1,21.5-9.587V22.488a9.706,9.706,0,0,1,19.411,0v19.3H56.55A1.841,1.841,0,0,1,58.39,43.629Zm-42.546-4.4v11.3h7.077a2.473,2.473,0,0,0,2.47-2.47V27.818l-.034,0c-.288.053-.571.12-.851.194-.057.015-.114.028-.17.043q-.438.124-.862.28l-.091.033a11.765,11.765,0,0,0-6.8,6.816l-.026.073c-.1.275-.193.555-.274.84-.025.088-.046.178-.069.266-.061.237-.118.475-.165.717-.031.167-.053.337-.078.506s-.056.357-.074.538C15.865,38.494,15.844,38.861,15.844,39.233Zm23.533,18.5c-.095-.081-.193-.157-.293-.231-.034-.025-.066-.051-.1-.075-.1-.069-.2-.134-.3-.2-.039-.024-.077-.048-.116-.07-.1-.059-.2-.113-.309-.165l-.133-.064q-.154-.071-.312-.132c-.052-.02-.1-.039-.156-.057-.1-.036-.2-.069-.3-.1-.064-.018-.13-.034-.2-.05-.094-.023-.188-.046-.282-.064s-.178-.029-.268-.041-.151-.024-.227-.031c-.17-.017-.341-.026-.514-.026a5.414,5.414,0,0,0-5.408,5.408c0,.173.01.345.026.514.008.075.02.15.031.226s.024.181.041.269.041.187.064.28c.016.067.032.133.051.2.029.1.062.2.1.3.019.055.039.108.059.162q.06.155.13.306c.022.047.045.094.068.14.051.1.1.2.162.3.024.041.049.081.074.122.062.1.125.2.193.3.026.036.053.071.08.107.073.1.146.194.226.286a5.4,5.4,0,1,0,7.618-7.615ZM38.964,55.2c.032.015.066.026.1.041V39.233c0-.188-.019-.372-.028-.558q-.027-.566-.107-1.121c-.031-.212-.055-.426-.1-.634-.026-.13-.066-.256-.1-.385-.058-.242-.113-.486-.186-.722-.031-.1-.072-.2-.105-.3-.088-.26-.177-.521-.283-.772-.032-.077-.073-.151-.107-.228-.119-.267-.241-.532-.379-.787-.037-.068-.08-.132-.118-.2-.145-.257-.3-.512-.46-.756-.048-.071-.1-.138-.152-.208-.164-.232-.33-.463-.511-.683-.066-.08-.139-.155-.206-.233a11.578,11.578,0,0,0-8.772-4.028c-.045,0-.089.007-.135.007V48.063a4.4,4.4,0,0,1-4.4,4.4H15.844v8.01a4.573,4.573,0,0,0,4.568,4.568h8.856c-.016-.032-.026-.067-.042-.1q-.126-.269-.229-.549c-.024-.063-.048-.127-.07-.19-.064-.189-.119-.381-.168-.576-.016-.064-.035-.128-.05-.193-.045-.2-.078-.4-.105-.611-.008-.059-.021-.119-.028-.179a7.318,7.318,0,0,1,8.089-8.089c.061.007.12.02.18.028.206.028.41.061.61.106.065.014.128.033.193.05.195.049.388.1.576.168.064.022.127.046.19.07Q38.695,55.075,38.964,55.2ZM51.318,22.488v19.3h1.65v-19.3a7.779,7.779,0,0,0-15.558,0v7.58c.018.02.034.042.052.062.257.282.5.577.733.881.063.082.125.164.186.247q.321.438.608.9c.023.036.05.07.072.106V22.488a6.129,6.129,0,0,1,12.258,0Zm5.145,21.229H48.031v2.7h8.432Zm-3.683,7.022a.6.6,0,0,0-.165-.088.656.656,0,0,0-.176-.055.96.96,0,0,0-.87,1.624,1.511,1.511,0,0,0,.143.121c.055.033.11.061.165.088s.121.039.182.055a1.075,1.075,0,0,0,.187.017,1.139,1.139,0,0,0,.193-.017,1.648,1.648,0,0,0,.176-.055,1.165,1.165,0,0,0,.165-.088,1.093,1.093,0,0,0,.149-.121.97.97,0,0,0,0-1.365A.768.768,0,0,0,52.779,50.739Zm4.14,4.195a1.029,1.029,0,0,0-.094-.171.94.94,0,0,0-.116-.143.794.794,0,0,0-.149-.121.952.952,0,0,0-.165-.088,1.141,1.141,0,0,0-.182-.055.859.859,0,0,0-.374,0,1.141,1.141,0,0,0-.182.055.979.979,0,0,0-.314.209,1.511,1.511,0,0,0-.121.143,1.086,1.086,0,0,0-.143.347,1.138,1.138,0,0,0-.017.193.968.968,0,0,0,.281.677.979.979,0,0,0,.314.209.763.763,0,0,0,.182.055.807.807,0,0,0,.374,0,.763.763,0,0,0,.182-.055.952.952,0,0,0,.165-.088.794.794,0,0,0,.149-.121.968.968,0,0,0,.281-.677,1.138,1.138,0,0,0-.017-.193A1.647,1.647,0,0,0,56.919,54.934Zm0-3.766A.98.98,0,0,0,56.826,51a.759.759,0,0,0-.264-.264.98.98,0,0,0-.165-.094c-.061-.022-.121-.039-.182-.055a1.069,1.069,0,0,0-.374,0c-.061.017-.121.033-.182.055a.8.8,0,0,0-.165.094.768.768,0,0,0-.149.116,1.093,1.093,0,0,0-.121.149,1.57,1.57,0,0,0-.088.165c-.022.061-.039.121-.055.182a1.074,1.074,0,0,0-.017.187.991.991,0,0,0,.281.683.967.967,0,0,0,.683.281,1.075,1.075,0,0,0,.187-.017,1.142,1.142,0,0,0,.182-.055,1.57,1.57,0,0,0,.165-.088,1.093,1.093,0,0,0,.149-.121.991.991,0,0,0,.281-.683,1.074,1.074,0,0,0-.017-.187C56.958,51.29,56.941,51.229,56.919,51.169ZM47.786,54.62a.966.966,0,1,0,1.36,0A1,1,0,0,0,47.786,54.62Zm0-3.766a.966.966,0,1,0,1.36,0A1,1,0,0,0,47.786,50.855Zm0,7.526a.966.966,0,1,0,1.36,0A1,1,0,0,0,47.786,58.38Zm5.351.314a.951.951,0,0,0-.088-.165,1.093,1.093,0,0,0-.121-.149.767.767,0,0,0-.149-.116.8.8,0,0,0-.165-.094,1.649,1.649,0,0,0-.176-.055.987.987,0,0,0-.87.264.794.794,0,0,0-.121.149.951.951,0,0,0-.088.165.763.763,0,0,0-.055.182,1.085,1.085,0,0,0-.022.187.972.972,0,0,0,.286.683,1.512,1.512,0,0,0,.143.121c.055.033.11.061.165.088s.121.039.182.055a1.075,1.075,0,0,0,.187.017,1.139,1.139,0,0,0,.193-.017,1.647,1.647,0,0,0,.176-.055,1.164,1.164,0,0,0,.165-.088,1.093,1.093,0,0,0,.149-.121.967.967,0,0,0,.281-.683,1.075,1.075,0,0,0-.017-.187A1.142,1.142,0,0,0,53.137,58.694ZM52.779,54.5a.787.787,0,0,0-.165-.088.937.937,0,0,0-.176-.055.884.884,0,0,0-.38,0,1.141,1.141,0,0,0-.182.055,1.2,1.2,0,0,0-.165.088.982.982,0,0,0-.143.121.95.95,0,0,0,0,1.36.982.982,0,0,0,.143.121,1.2,1.2,0,0,0,.165.088.763.763,0,0,0,.182.055,1.085,1.085,0,0,0,.187.022,1.149,1.149,0,0,0,.193-.022.656.656,0,0,0,.176-.055.979.979,0,0,0,.314-.209,1.511,1.511,0,0,0,.121-.143,1.2,1.2,0,0,0,.088-.165,1.142,1.142,0,0,0,.055-.182,1.124,1.124,0,0,0,.017-.187.957.957,0,0,0-.281-.683A.794.794,0,0,0,52.779,54.5Zm4.14,4.195a.98.98,0,0,0-.094-.165.759.759,0,0,0-.264-.264.684.684,0,0,0-.165-.088.763.763,0,0,0-.182-.055.859.859,0,0,0-.374,0,.763.763,0,0,0-.182.055.6.6,0,0,0-.165.088.767.767,0,0,0-.149.116,1.093,1.093,0,0,0-.121.149,1.57,1.57,0,0,0-.088.165c-.022.061-.039.121-.055.182a1.069,1.069,0,0,0,0,.374c.017.061.033.121.055.182a1.165,1.165,0,0,0,.088.165.944.944,0,0,0,.27.27,1.164,1.164,0,0,0,.165.088c.061.022.121.039.182.055a1.069,1.069,0,0,0,.374,0c.061-.017.121-.033.182-.055a1.569,1.569,0,0,0,.165-.088,1.093,1.093,0,0,0,.149-.121.767.767,0,0,0,.116-.149.8.8,0,0,0,.094-.165c.022-.061.039-.121.055-.182a1.068,1.068,0,0,0,0-.374C56.958,58.815,56.941,58.755,56.919,58.694ZM37.41,49.41a3.05,3.05,0,1,1-3.05-3.05A3.053,3.053,0,0,1,37.41,49.41Zm-1.927,0a1.123,1.123,0,1,0-1.123,1.122A1.124,1.124,0,0,0,35.483,49.41Zm1.927-9.665a3.05,3.05,0,1,1-3.05-3.05A3.053,3.053,0,0,1,37.41,39.745Zm-1.927,0a1.123,1.123,0,1,0-1.123,1.123A1.124,1.124,0,0,0,35.483,39.745Zm-17.3.451a.964.964,0,0,0,.963-.963,8.246,8.246,0,0,1,3.3-6.627.963.963,0,0,0-1.163-1.536,10.159,10.159,0,0,0-4.069,8.164A.963.963,0,0,0,18.183,40.2ZM18,40.885a1.419,1.419,0,0,0-.182.055,1.164,1.164,0,0,0-.165.088,1.094,1.094,0,0,0-.149.121.97.97,0,0,0,0,1.365.768.768,0,0,0,.149.116.6.6,0,0,0,.165.088.636.636,0,0,0,.182.055.7.7,0,0,0,.187.022A.964.964,0,1,0,18,40.885Z" transform="translate(-13.917 -12.783)" fill="url(#linear-gradient)"/>
</svg>
